<svg xmlns="http://www.w3.org/2000/svg" version="1.1" xmlns:xlink="http://www.w3.org/1999/xlink" xmlns:svgjs="http://svgjs.dev/svgjs" width="1500" height="268" viewBox="0 0 1500 268"><g transform="matrix(1,0,0,1,-0.9090909090909918,-0.16658481497290722)"><svg viewBox="0 0 396 71" data-background-color="#385d6a" preserveAspectRatio="xMidYMid meet" height="268" width="1500" xmlns="http://www.w3.org/2000/svg" xmlns:xlink="http://www.w3.org/1999/xlink"><g id="tight-bounds" transform="matrix(1,0,0,1,0.2400000000000091,0.04413254426521007)"><svg viewBox="0 0 395.52 70.9117349114696" height="70.9117349114696" width="395.52"><g><svg viewBox="0 0 444.91369570055485 79.7674" height="70.9117349114696" width="395.52"><g><svg viewBox="0 0 444.91369570055485 79.7674" height="79.7674" width="444.91369570055485"><g id="textblocktransform"><svg viewBox="0 0 444.91369570055485 79.7674" height="79.7674" width="444.91369570055485" id="textblock"><g><svg viewBox="0 0 444.91369570055485 79.7674" height="79.7674" width="444.91369570055485"><g><svg><g></g><g></g></svg></g><g><svg><g><svg></svg></g><g></g></svg></g><g id="text-0"><svg viewBox="0 0 444.91369570055485 79.7674" height="79.7674" width="444.91369570055485"><g transform="matrix(1,0,0,1,0,13.608699999999995)"><svg width="213.1" viewBox="-0.85 -38.1 213.07999999999998 38.85" height="38.85" data-palette-color="url(#bce3c1d7-426c-4563-a99a-9864550e3f90)"></svg></g><g><svg xmlns="http://www.w3.org/2000/svg" xmlns:xlink="http://www.w3.org/1999/xlink" version="1.1" x="231.9326" y="0" viewBox="13.094109156035383 10.617724864115191 73.8113377591194 78.76731763476914" enable-background="new 0 0 100 100" xml:space="preserve" height="79.7674" width="74.74849570055486" class="icon-dxe-0" data-fill-palette-color="accent" id="dxe-0"><path d="M29.57 21.645C29.736 20.145 27.904 19.813 27.904 19.813H14.738S12.238 17.813 13.404 16.813 31.238 10.645 31.238 10.645H43.57S45.738 9.979 45.738 15.229 45.904 23.979 50.904 29.479L55.904 34.979 86.904 78.981S87.068 82.145 83.904 81.145 90.568 97.147 74.404 84.979C74.404 84.979 63.736 72.649 60.068 63.981 56.404 55.313 58.24 73.313 58.24 73.313S59.904 79.645 51.238 74.313V84.311H64.068L63.904 87.643H17.07V84.143H30.238S32.238 83.643 33.404 81.813C34.57 79.981 35.904 72.813 35.904 72.813L35.738 52.98S37.072 50.978 29.238 37.478C29.238 37.479 29.404 23.145 29.57 21.645M27.904 14.23L21.377 16.441 31.123 17.324 33.656 17.623 33.842 35.519 50 66.977 52.135 68.125 53.256 68.023 52.983 61.156 39.143 40.474 38.977 34.474 48.239 34.478V32.644L42.143 24.8 41.143 14.218zM44.877 38.242L44.939 39.183C45.154 42.581 51.433 54.058 63.318 59.652 71.568 63.535 73.404 67.894 73.404 67.894L74.076 66.968 60.131 47.857 52.115 38.337zM65.646 68.316L75.24 81.23 81.17 85.615 80.529 81.519 68.748 67.812 63.853 64.691zM45.779 84.018V68.645L39.904 58.27 40.455 74.286 37.58 84.034z" fill="#dbc078" data-fill-palette-color="accent"></path><circle cx="37.029" cy="16.873" r="2.0" fill="#dbc078" data-fill-palette-color="accent"></circle></svg></g><g transform="matrix(1,0,0,1,325.5136957005549,16.858699999999995)"><svg width="119.40000000000002" viewBox="4.05 -34.85 119.39 46.05" height="46.050000000000004" data-palette-color="url(#8e15c977-33ea-48a6-8f19-d5491a8f568f)"></svg></g></svg></g></svg></g></svg></g></svg></g><g></g></svg></g><defs></defs><mask id="5da793b2-75ec-49a9-9497-115597d7a767"><g id="SvgjsG1258"><svg viewBox="0 0 395.52 70.9117349114696" height="70.9117349114696" width="395.52"><g><svg viewBox="0 0 444.91369570055485 79.7674" height="70.9117349114696" width="395.52"><g><svg viewBox="0 0 444.91369570055485 79.7674" height="79.7674" width="444.91369570055485"><g id="SvgjsG1257"><svg viewBox="0 0 444.91369570055485 79.7674" height="79.7674" width="444.91369570055485" id="SvgjsSvg1256"><g><svg viewBox="0 0 444.91369570055485 79.7674" height="79.7674" width="444.91369570055485"><g><svg><g></g><g></g></svg></g><g><svg><g><svg></svg></g><g></g></svg></g><g id="SvgjsG1255"><svg viewBox="0 0 444.91369570055485 79.7674" height="79.7674" width="444.91369570055485"><g transform="matrix(1,0,0,1,0,13.608699999999995)"><svg width="213.1" viewBox="-0.85 -38.1 213.07999999999998 38.85" height="38.85" data-palette-color="url(#bce3c1d7-426c-4563-a99a-9864550e3f90)"><path d="M6.15 0L-0.85 0 13.9-35.45 14.4-35.45 29.2 0 22.4 0 20.45-5.05 8-5.05 6.15 0ZM14.1-22.2L13.3-19.4 9.8-9.9 18.6-9.9 14.95-19.4 14.1-22.2ZM39.2 0.6L39.2 0.6Q35.42 0.6 33.63-1.81 31.85-4.23 31.85-8.45L31.85-8.45 31.85-24.9 38.1-24.9 38.1-9Q38.1-6.95 38.85-5.65 39.6-4.35 41.4-4.35L41.4-4.35Q43.17-4.35 44.36-5.65 45.55-6.95 45.55-9L45.55-9 45.55-24.9 51.8-24.9 51.8 0 46.15 0 46.02-3.23Q45.1-1.75 43.51-0.58 41.92 0.6 39.2 0.6ZM67.4 0.75L67.4 0.75Q63.17 0.75 61.68-1.45 60.2-3.65 60.2-8.1L60.2-8.1 60.2-19.65 56.95-19.65 56.95-24.9 60.45-24.9 60.8-30.15 66.25-32.5 66.25-24.9 72.4-24.9 72.4-19.65 66.25-19.65 66.25-8.25Q66.25-6.08 66.86-5.24 67.47-4.4 68.55-4.4L68.55-4.4Q69.65-4.4 70.87-4.98 72.09-5.55 72.8-6.15L72.8-6.15 74-1.1Q73.22-0.55 71.98-0.14 70.75 0.28 69.48 0.51 68.22 0.75 67.4 0.75ZM84.99 0L78.84 0 78.84-38.1 84.74-38.1 84.74-25.5 84.62-21.75Q85.62-23.2 87.42-24.35 89.22-25.5 92.19-25.5L92.19-25.5Q95.94-25.5 97.79-23.1 99.64-20.7 99.64-16.45L99.64-16.45 99.64 0 93.24 0 93.24-15.8Q93.24-17.88 92.26-19.16 91.27-20.45 89.49-20.45L89.49-20.45Q87.74-20.45 86.37-19.16 84.99-17.88 84.99-15.8L84.99-15.8 84.99 0ZM117.34 0.65L117.34 0.65Q113.14 0.65 110.57-1.11 107.99-2.88 106.82-5.79 105.64-8.7 105.64-12.15L105.64-12.15Q105.64-15.78 106.98-18.81 108.32-21.85 110.9-23.68 113.49-25.5 117.24-25.5L117.24-25.5Q122.84-25.5 125.07-22.26 127.29-19.03 127.29-13.1L127.29-13.1Q127.29-12.58 127.27-11.78 127.24-10.98 127.19-10.4L127.19-10.4 112.19-10.4Q112.34-7.45 113.85-5.78 115.37-4.1 118.39-4.1L118.39-4.1Q119.94-4.1 121.72-4.79 123.49-5.48 124.34-6.45L124.34-6.45 126.34-1.7Q125.34-1.03 123.18-0.19 121.02 0.65 117.34 0.65ZM112.14-14.3L112.14-14.3 120.94-14.3Q120.94-16.93 120.48-18.31 120.02-19.7 119.22-20.23 118.42-20.75 117.39-20.75L117.39-20.75Q114.84-20.75 113.57-18.86 112.29-16.98 112.14-14.3ZM139.59 0L133.19 0 133.19-24.9 138.99-24.9 139.11-21.63Q140.09-23.13 141.84-24.31 143.59-25.5 146.44-25.5L146.44-25.5Q150.24-25.5 152.09-23.1 153.94-20.7 153.94-16.45L153.94-16.45 153.94 0 147.54 0 147.54-15.9Q147.54-17.98 146.66-19.26 145.79-20.55 143.99-20.55L143.99-20.55Q142.24-20.55 140.91-19.26 139.59-17.98 139.59-15.9L139.59-15.9 139.59 0ZM169.34 0.75L169.34 0.75Q165.11 0.75 163.62-1.45 162.13-3.65 162.13-8.1L162.13-8.1 162.13-19.65 158.88-19.65 158.88-24.9 162.38-24.9 162.74-30.15 168.19-32.5 168.19-24.9 174.34-24.9 174.34-19.65 168.19-19.65 168.19-8.25Q168.19-6.08 168.8-5.24 169.41-4.4 170.49-4.4L170.49-4.4Q171.59-4.4 172.81-4.98 174.03-5.55 174.74-6.15L174.74-6.15 175.94-1.1Q175.16-0.55 173.92-0.14 172.69 0.28 171.42 0.51 170.16 0.75 169.34 0.75ZM187.38-28.95L180.38-28.95 180.38-35.6 187.38-35.6 187.38-28.95ZM187.13 0L180.63 0 180.63-24.9 187.13-24.9 187.13 0ZM204.38 0.6L204.38 0.6Q200.41 0.6 197.91-1.19 195.41-2.98 194.22-5.93 193.03-8.88 193.03-12.35L193.03-12.35Q193.03-15.8 194.35-18.8 195.68-21.8 198.28-23.65 200.88-25.5 204.73-25.5L204.73-25.5Q206.88-25.5 208.63-25.05 210.38-24.6 212.03-23.25L212.03-23.25 209.98-17.95Q209.23-19.07 207.79-19.69 206.35-20.3 205.08-20.3L205.08-20.3Q199.63-20.3 199.63-12.4L199.63-12.4Q199.63-8.25 200.99-6.38 202.35-4.5 205.08-4.5L205.08-4.5Q206.88-4.5 208.25-5.19 209.63-5.88 210.33-6.65L210.33-6.65 212.23-2.2Q211.53-1.45 209.48-0.43 207.43 0.6 204.38 0.6Z" opacity="1" transform="matrix(1,0,0,1,0,0)" fill="white" class="undefined-tk-0"></path></svg></g><g><svg xmlns="http://www.w3.org/2000/svg" xmlns:xlink="http://www.w3.org/1999/xlink" version="1.1" x="231.9326" y="0" viewBox="13.094109156035383 10.617724864115191 73.8113377591194 78.76731763476914" enable-background="new 0 0 100 100" xml:space="preserve" height="79.7674" width="74.74849570055486" class="icon-dxe-0" data-fill-palette-color="accent" id="SvgjsSvg1254"><path d="M29.57 21.645C29.736 20.145 27.904 19.813 27.904 19.813H14.738S12.238 17.813 13.404 16.813 31.238 10.645 31.238 10.645H43.57S45.738 9.979 45.738 15.229 45.904 23.979 50.904 29.479L55.904 34.979 86.904 78.981S87.068 82.145 83.904 81.145 90.568 97.147 74.404 84.979C74.404 84.979 63.736 72.649 60.068 63.981 56.404 55.313 58.24 73.313 58.24 73.313S59.904 79.645 51.238 74.313V84.311H64.068L63.904 87.643H17.07V84.143H30.238S32.238 83.643 33.404 81.813C34.57 79.981 35.904 72.813 35.904 72.813L35.738 52.98S37.072 50.978 29.238 37.478C29.238 37.479 29.404 23.145 29.57 21.645M27.904 14.23L21.377 16.441 31.123 17.324 33.656 17.623 33.842 35.519 50 66.977 52.135 68.125 53.256 68.023 52.983 61.156 39.143 40.474 38.977 34.474 48.239 34.478V32.644L42.143 24.8 41.143 14.218zM44.877 38.242L44.939 39.183C45.154 42.581 51.433 54.058 63.318 59.652 71.568 63.535 73.404 67.894 73.404 67.894L74.076 66.968 60.131 47.857 52.115 38.337zM65.646 68.316L75.24 81.23 81.17 85.615 80.529 81.519 68.748 67.812 63.853 64.691zM45.779 84.018V68.645L39.904 58.27 40.455 74.286 37.58 84.034z" fill="black"></path><circle cx="37.029" cy="16.873" r="2.0" fill="black"></circle></svg></g><g transform="matrix(1,0,0,1,325.5136957005549,16.858699999999995)"><svg width="119.40000000000002" viewBox="4.05 -34.85 119.39 46.05" height="46.050000000000004" data-palette-color="url(#8e15c977-33ea-48a6-8f19-d5491a8f568f)"><path d="M23.25 0L4.05 0 4.05-34.85 22.25-34.85 22.25-29.4 10.3-29.4 10.3-21.25 19.8-21.25 19.8-15.95 10.3-15.95 10.3-5.65 23.25-5.65 23.25 0ZM29.65 9L32.45 4.3Q33.35 4.85 34.63 5.3 35.92 5.75 37.65 5.75L37.65 5.75Q40.85 5.75 42.45 4.09 44.05 2.43 44.05-1.2L44.05-1.2 44.05-5.1Q43.7-3.83 42.95-2.58 42.2-1.33 40.88-0.51 39.57 0.3 37.55 0.3L37.55 0.3Q34.72 0.3 32.44-0.99 30.15-2.27 28.8-5.08 27.45-7.88 27.45-12.4L27.45-12.4Q27.45-17 28.79-19.89 30.12-22.78 32.38-24.14 34.65-25.5 37.4-25.5L37.4-25.5Q40.47-25.5 42.1-23.95 43.72-22.4 44.05-20.6L44.05-20.6 44.75-24.9 49.65-24.9 49.65-1.2Q49.65 4.53 46.76 7.86 43.87 11.2 38.25 11.2L38.25 11.2Q35.22 11.2 33 10.44 30.77 9.68 29.65 9L29.65 9ZM38.8-4.6L38.8-4.6Q40.97-4.6 42.21-6.66 43.45-8.72 43.45-12.5L43.45-12.5Q43.45-16.07 42.37-18.26 41.3-20.45 39-20.45L39-20.45Q37.72-20.45 36.56-19.69 35.4-18.93 34.65-17.18 33.9-15.43 33.9-12.45L33.9-12.45Q33.9-8.4 35.28-6.5 36.67-4.6 38.8-4.6ZM64.35 9.45L58.2 9.45 62.25-1.7 52.9-24.9 59.85-24.9 63.55-13.8 65.15-8.05 66.75-13.8 70.5-24.9 77.05-24.9 64.35 9.45ZM86.69 10.9L80.64 10.9 80.64-24.9 86.59-24.9 86.59-24.1 86.09-20.6Q86.39-22.03 87.46-23.15 88.52-24.28 90.06-24.91 91.59-25.55 93.29-25.55L93.29-25.55Q98.24-25.55 100.52-22.09 102.79-18.63 102.79-12.8L102.79-12.8Q102.79-6.28 100.03-2.79 97.27 0.7 92.79 0.7L92.79 0.7Q90.02 0.7 88.36-1.03 86.69-2.75 86.09-4.95L86.09-4.95 86.69-0.25 86.69 10.9ZM91.34-4.25L91.34-4.25Q92.54-4.25 93.67-5.06 94.79-5.88 95.52-7.7 96.24-9.53 96.24-12.55L96.24-12.55Q96.24-16.75 94.81-18.6 93.37-20.45 91.44-20.45L91.44-20.45Q89.12-20.45 87.91-18.06 86.69-15.68 86.69-12.15L86.69-12.15Q86.69-8.63 87.93-6.44 89.17-4.25 91.34-4.25ZM116.84 0.75L116.84 0.75Q112.62 0.75 111.13-1.45 109.64-3.65 109.64-8.1L109.64-8.1 109.64-19.65 106.39-19.65 106.39-24.9 109.89-24.9 110.24-30.15 115.69-32.5 115.69-24.9 121.84-24.9 121.84-19.65 115.69-19.65 115.69-8.25Q115.69-6.08 116.3-5.24 116.92-4.4 117.99-4.4L117.99-4.4Q119.09-4.4 120.32-4.98 121.54-5.55 122.24-6.15L122.24-6.15 123.44-1.1Q122.67-0.55 121.43-0.14 120.19 0.28 118.93 0.51 117.67 0.75 116.84 0.75Z" opacity="1" transform="matrix(1,0,0,1,0,0)" fill="black" class="undefined-tk-1"></path></svg></g></svg></g></svg></g></svg></g></svg></g><g></g></svg></g><defs><mask></mask></defs></svg><rect width="395.52" height="70.9117349114696" fill="black" stroke="none" visibility="hidden"></rect></g></mask><linearGradient x1="0.054" x2="0.941" y1="0.5" y2="0.5" id="bce3c1d7-426c-4563-a99a-9864550e3f90"><stop stop-color="#9c7945" offset="0"></stop><stop stop-color="#faf3aa" offset="0.498"></stop><stop stop-color="#9c7945" offset="1"></stop></linearGradient><rect width="395.52" height="70.9117349114696" fill="url(#bce3c1d7-426c-4563-a99a-9864550e3f90)" mask="url(#5da793b2-75ec-49a9-9497-115597d7a767)" data-fill-palette-color="primary"></rect><mask id="3736a9e5-7d7f-4e2d-9c24-9229f4526c81"><g id="SvgjsG1268"><svg viewBox="0 0 395.52 70.9117349114696" height="70.9117349114696" width="395.52"><g><svg viewBox="0 0 444.91369570055485 79.7674" height="70.9117349114696" width="395.52"><g><svg viewBox="0 0 444.91369570055485 79.7674" height="79.7674" width="444.91369570055485"><g id="SvgjsG1267"><svg viewBox="0 0 444.91369570055485 79.7674" height="79.7674" width="444.91369570055485" id="SvgjsSvg1266"><g><svg viewBox="0 0 444.91369570055485 79.7674" height="79.7674" width="444.91369570055485"><g><svg><g></g><g></g></svg></g><g><svg><g><svg></svg></g><g></g></svg></g><g id="SvgjsG1265"><svg viewBox="0 0 444.91369570055485 79.7674" height="79.7674" width="444.91369570055485"><g transform="matrix(1,0,0,1,0,13.608699999999995)"><svg width="213.1" viewBox="-0.85 -38.1 213.07999999999998 38.85" height="38.85" data-palette-color="url(#bce3c1d7-426c-4563-a99a-9864550e3f90)"></svg></g><g><svg xmlns="http://www.w3.org/2000/svg" xmlns:xlink="http://www.w3.org/1999/xlink" version="1.1" x="231.9326" y="0" viewBox="13.094109156035383 10.617724864115191 73.8113377591194 78.76731763476914" enable-background="new 0 0 100 100" xml:space="preserve" height="79.7674" width="74.74849570055486" class="icon-dxe-0" data-fill-palette-color="accent" id="SvgjsSvg1264"><path d="M29.57 21.645C29.736 20.145 27.904 19.813 27.904 19.813H14.738S12.238 17.813 13.404 16.813 31.238 10.645 31.238 10.645H43.57S45.738 9.979 45.738 15.229 45.904 23.979 50.904 29.479L55.904 34.979 86.904 78.981S87.068 82.145 83.904 81.145 90.568 97.147 74.404 84.979C74.404 84.979 63.736 72.649 60.068 63.981 56.404 55.313 58.24 73.313 58.24 73.313S59.904 79.645 51.238 74.313V84.311H64.068L63.904 87.643H17.07V84.143H30.238S32.238 83.643 33.404 81.813C34.57 79.981 35.904 72.813 35.904 72.813L35.738 52.98S37.072 50.978 29.238 37.478C29.238 37.479 29.404 23.145 29.57 21.645M27.904 14.23L21.377 16.441 31.123 17.324 33.656 17.623 33.842 35.519 50 66.977 52.135 68.125 53.256 68.023 52.983 61.156 39.143 40.474 38.977 34.474 48.239 34.478V32.644L42.143 24.8 41.143 14.218zM44.877 38.242L44.939 39.183C45.154 42.581 51.433 54.058 63.318 59.652 71.568 63.535 73.404 67.894 73.404 67.894L74.076 66.968 60.131 47.857 52.115 38.337zM65.646 68.316L75.24 81.23 81.17 85.615 80.529 81.519 68.748 67.812 63.853 64.691zM45.779 84.018V68.645L39.904 58.27 40.455 74.286 37.58 84.034z" fill="black"></path><circle cx="37.029" cy="16.873" r="2.0" fill="black"></circle></svg></g><g transform="matrix(1,0,0,1,325.5136957005549,16.858699999999995)"><svg width="119.40000000000002" viewBox="4.05 -34.85 119.39 46.05" height="46.050000000000004" data-palette-color="url(#8e15c977-33ea-48a6-8f19-d5491a8f568f)"><path d="M23.25 0L4.05 0 4.05-34.85 22.25-34.85 22.25-29.4 10.3-29.4 10.3-21.25 19.8-21.25 19.8-15.95 10.3-15.95 10.3-5.65 23.25-5.65 23.25 0ZM29.65 9L32.45 4.3Q33.35 4.85 34.63 5.3 35.92 5.75 37.65 5.75L37.65 5.75Q40.85 5.75 42.45 4.09 44.05 2.43 44.05-1.2L44.05-1.2 44.05-5.1Q43.7-3.83 42.95-2.58 42.2-1.33 40.88-0.51 39.57 0.3 37.55 0.3L37.55 0.3Q34.72 0.3 32.44-0.99 30.15-2.27 28.8-5.08 27.45-7.88 27.45-12.4L27.45-12.4Q27.45-17 28.79-19.89 30.12-22.78 32.38-24.14 34.65-25.5 37.4-25.5L37.4-25.5Q40.47-25.5 42.1-23.95 43.72-22.4 44.05-20.6L44.05-20.6 44.75-24.9 49.65-24.9 49.65-1.2Q49.65 4.53 46.76 7.86 43.87 11.2 38.25 11.2L38.25 11.2Q35.22 11.2 33 10.44 30.77 9.68 29.65 9L29.65 9ZM38.8-4.6L38.8-4.6Q40.97-4.6 42.21-6.66 43.45-8.72 43.45-12.5L43.45-12.5Q43.45-16.07 42.37-18.26 41.3-20.45 39-20.45L39-20.45Q37.72-20.45 36.56-19.69 35.4-18.93 34.65-17.18 33.9-15.43 33.9-12.45L33.9-12.45Q33.9-8.4 35.28-6.5 36.67-4.6 38.8-4.6ZM64.35 9.45L58.2 9.45 62.25-1.7 52.9-24.9 59.85-24.9 63.55-13.8 65.15-8.05 66.75-13.8 70.5-24.9 77.05-24.9 64.35 9.45ZM86.69 10.9L80.64 10.9 80.64-24.9 86.59-24.9 86.59-24.1 86.09-20.6Q86.39-22.03 87.46-23.15 88.52-24.28 90.06-24.91 91.59-25.55 93.29-25.55L93.29-25.55Q98.24-25.55 100.52-22.09 102.79-18.63 102.79-12.8L102.79-12.8Q102.79-6.28 100.03-2.79 97.27 0.7 92.79 0.7L92.79 0.7Q90.02 0.7 88.36-1.03 86.69-2.75 86.09-4.95L86.09-4.95 86.69-0.25 86.69 10.9ZM91.34-4.25L91.34-4.25Q92.54-4.25 93.67-5.06 94.79-5.88 95.52-7.7 96.24-9.53 96.24-12.55L96.24-12.55Q96.24-16.75 94.81-18.6 93.37-20.45 91.44-20.45L91.44-20.45Q89.12-20.45 87.91-18.06 86.69-15.68 86.69-12.15L86.69-12.15Q86.69-8.63 87.93-6.44 89.17-4.25 91.34-4.25ZM116.84 0.75L116.84 0.75Q112.62 0.75 111.13-1.45 109.64-3.65 109.64-8.1L109.64-8.1 109.64-19.65 106.39-19.65 106.39-24.9 109.89-24.9 110.24-30.15 115.69-32.5 115.69-24.9 121.84-24.9 121.84-19.65 115.69-19.65 115.69-8.25Q115.69-6.08 116.3-5.24 116.92-4.4 117.99-4.4L117.99-4.4Q119.09-4.4 120.32-4.98 121.54-5.55 122.24-6.15L122.24-6.15 123.44-1.1Q122.67-0.55 121.43-0.14 120.19 0.28 118.93 0.51 117.67 0.75 116.84 0.75Z" opacity="1" transform="matrix(1,0,0,1,0,0)" fill="white" class="undefined-tk-1"></path></svg></g></svg></g></svg></g></svg></g></svg></g><g></g></svg></g><defs><mask></mask></defs><mask><g id="SvgjsG1263"><svg viewBox="0 0 395.52 70.9117349114696" height="70.9117349114696" width="395.52"><g><svg viewBox="0 0 444.91369570055485 79.7674" height="70.9117349114696" width="395.52"><g><svg viewBox="0 0 444.91369570055485 79.7674" height="79.7674" width="444.91369570055485"><g id="SvgjsG1262"><svg viewBox="0 0 444.91369570055485 79.7674" height="79.7674" width="444.91369570055485" id="SvgjsSvg1261"><g><svg viewBox="0 0 444.91369570055485 79.7674" height="79.7674" width="444.91369570055485"><g><svg><g></g><g></g></svg></g><g><svg><g><svg></svg></g><g></g></svg></g><g id="SvgjsG1260"><svg viewBox="0 0 444.91369570055485 79.7674" height="79.7674" width="444.91369570055485"><g transform="matrix(1,0,0,1,0,13.608699999999995)"><svg width="213.1" viewBox="-0.85 -38.1 213.07999999999998 38.85" height="38.85" data-palette-color="url(#bce3c1d7-426c-4563-a99a-9864550e3f90)"><path d="M6.15 0L-0.85 0 13.9-35.45 14.4-35.45 29.2 0 22.4 0 20.45-5.05 8-5.05 6.15 0ZM14.1-22.2L13.3-19.4 9.8-9.9 18.6-9.9 14.95-19.4 14.1-22.2ZM39.2 0.6L39.2 0.6Q35.42 0.6 33.63-1.81 31.85-4.23 31.85-8.45L31.85-8.45 31.85-24.9 38.1-24.9 38.1-9Q38.1-6.95 38.85-5.65 39.6-4.35 41.4-4.35L41.4-4.35Q43.17-4.35 44.36-5.65 45.55-6.95 45.55-9L45.55-9 45.55-24.9 51.8-24.9 51.8 0 46.15 0 46.02-3.23Q45.1-1.75 43.51-0.58 41.92 0.6 39.2 0.6ZM67.4 0.75L67.4 0.75Q63.17 0.75 61.68-1.45 60.2-3.65 60.2-8.1L60.2-8.1 60.2-19.65 56.95-19.65 56.95-24.9 60.45-24.9 60.8-30.15 66.25-32.5 66.25-24.9 72.4-24.9 72.4-19.65 66.25-19.65 66.25-8.25Q66.25-6.08 66.86-5.24 67.47-4.4 68.55-4.4L68.55-4.4Q69.65-4.4 70.87-4.98 72.09-5.55 72.8-6.15L72.8-6.15 74-1.1Q73.22-0.55 71.98-0.14 70.75 0.28 69.48 0.51 68.22 0.75 67.4 0.75ZM84.99 0L78.84 0 78.84-38.1 84.74-38.1 84.74-25.5 84.62-21.75Q85.62-23.2 87.42-24.35 89.22-25.5 92.19-25.5L92.19-25.5Q95.94-25.5 97.79-23.1 99.64-20.7 99.64-16.45L99.64-16.45 99.64 0 93.24 0 93.24-15.8Q93.24-17.88 92.26-19.16 91.27-20.45 89.49-20.45L89.49-20.45Q87.74-20.45 86.37-19.16 84.99-17.88 84.99-15.8L84.99-15.8 84.99 0ZM117.34 0.65L117.34 0.65Q113.14 0.65 110.57-1.11 107.99-2.88 106.82-5.79 105.64-8.7 105.64-12.15L105.64-12.15Q105.64-15.78 106.98-18.81 108.32-21.85 110.9-23.68 113.49-25.5 117.24-25.5L117.24-25.5Q122.84-25.5 125.07-22.26 127.29-19.03 127.29-13.1L127.29-13.1Q127.29-12.58 127.27-11.78 127.24-10.98 127.19-10.4L127.19-10.4 112.19-10.4Q112.34-7.45 113.85-5.78 115.37-4.1 118.39-4.1L118.39-4.1Q119.94-4.1 121.72-4.79 123.49-5.48 124.34-6.45L124.34-6.45 126.34-1.7Q125.34-1.03 123.18-0.19 121.02 0.65 117.34 0.65ZM112.14-14.3L112.14-14.3 120.94-14.3Q120.94-16.93 120.48-18.31 120.02-19.7 119.22-20.23 118.42-20.75 117.39-20.75L117.39-20.75Q114.84-20.75 113.57-18.86 112.29-16.98 112.14-14.3ZM139.59 0L133.19 0 133.19-24.9 138.99-24.9 139.11-21.63Q140.09-23.13 141.84-24.31 143.59-25.5 146.44-25.5L146.44-25.5Q150.24-25.5 152.09-23.1 153.94-20.7 153.94-16.45L153.94-16.45 153.94 0 147.54 0 147.54-15.9Q147.54-17.98 146.66-19.26 145.79-20.55 143.99-20.55L143.99-20.55Q142.24-20.55 140.91-19.26 139.59-17.98 139.59-15.9L139.59-15.9 139.59 0ZM169.34 0.75L169.34 0.75Q165.11 0.75 163.62-1.45 162.13-3.65 162.13-8.1L162.13-8.1 162.13-19.65 158.88-19.65 158.88-24.9 162.38-24.9 162.74-30.15 168.19-32.5 168.19-24.9 174.34-24.9 174.34-19.65 168.19-19.65 168.19-8.25Q168.19-6.08 168.8-5.24 169.41-4.4 170.49-4.4L170.49-4.4Q171.59-4.4 172.81-4.98 174.03-5.55 174.74-6.15L174.74-6.15 175.94-1.1Q175.16-0.55 173.92-0.14 172.69 0.28 171.42 0.51 170.16 0.75 169.34 0.75ZM187.38-28.95L180.38-28.95 180.38-35.6 187.38-35.6 187.38-28.95ZM187.13 0L180.63 0 180.63-24.9 187.13-24.9 187.13 0ZM204.38 0.6L204.38 0.6Q200.41 0.6 197.91-1.19 195.41-2.98 194.22-5.93 193.03-8.88 193.03-12.35L193.03-12.35Q193.03-15.8 194.35-18.8 195.68-21.8 198.28-23.65 200.88-25.5 204.73-25.5L204.73-25.5Q206.88-25.5 208.63-25.05 210.38-24.6 212.03-23.25L212.03-23.25 209.98-17.95Q209.23-19.07 207.79-19.69 206.35-20.3 205.08-20.3L205.08-20.3Q199.63-20.3 199.63-12.4L199.63-12.4Q199.63-8.25 200.99-6.38 202.35-4.5 205.08-4.5L205.08-4.5Q206.88-4.5 208.25-5.19 209.63-5.88 210.33-6.65L210.33-6.65 212.23-2.2Q211.53-1.45 209.48-0.43 207.43 0.6 204.38 0.6Z" opacity="1" transform="matrix(1,0,0,1,0,0)" fill="black" class="undefined-tk-0"></path></svg></g><g><svg xmlns="http://www.w3.org/2000/svg" xmlns:xlink="http://www.w3.org/1999/xlink" version="1.1" x="231.9326" y="0" viewBox="13.094109156035383 10.617724864115191 73.8113377591194 78.76731763476914" enable-background="new 0 0 100 100" xml:space="preserve" height="79.7674" width="74.74849570055486" class="icon-dxe-0" data-fill-palette-color="accent" id="SvgjsSvg1259"><path d="M29.57 21.645C29.736 20.145 27.904 19.813 27.904 19.813H14.738S12.238 17.813 13.404 16.813 31.238 10.645 31.238 10.645H43.57S45.738 9.979 45.738 15.229 45.904 23.979 50.904 29.479L55.904 34.979 86.904 78.981S87.068 82.145 83.904 81.145 90.568 97.147 74.404 84.979C74.404 84.979 63.736 72.649 60.068 63.981 56.404 55.313 58.24 73.313 58.24 73.313S59.904 79.645 51.238 74.313V84.311H64.068L63.904 87.643H17.07V84.143H30.238S32.238 83.643 33.404 81.813C34.57 79.981 35.904 72.813 35.904 72.813L35.738 52.98S37.072 50.978 29.238 37.478C29.238 37.479 29.404 23.145 29.57 21.645M27.904 14.23L21.377 16.441 31.123 17.324 33.656 17.623 33.842 35.519 50 66.977 52.135 68.125 53.256 68.023 52.983 61.156 39.143 40.474 38.977 34.474 48.239 34.478V32.644L42.143 24.8 41.143 14.218zM44.877 38.242L44.939 39.183C45.154 42.581 51.433 54.058 63.318 59.652 71.568 63.535 73.404 67.894 73.404 67.894L74.076 66.968 60.131 47.857 52.115 38.337zM65.646 68.316L75.24 81.23 81.17 85.615 80.529 81.519 68.748 67.812 63.853 64.691zM45.779 84.018V68.645L39.904 58.27 40.455 74.286 37.58 84.034z" fill="black"></path><circle cx="37.029" cy="16.873" r="2.0" fill="black"></circle></svg></g><g transform="matrix(1,0,0,1,325.5136957005549,16.858699999999995)"><svg width="119.40000000000002" viewBox="4.05 -34.85 119.39 46.05" height="46.050000000000004" data-palette-color="url(#8e15c977-33ea-48a6-8f19-d5491a8f568f)"><path d="M23.25 0L4.05 0 4.05-34.85 22.25-34.85 22.25-29.4 10.3-29.4 10.3-21.25 19.8-21.25 19.8-15.95 10.3-15.95 10.3-5.65 23.25-5.65 23.25 0ZM29.65 9L32.45 4.3Q33.35 4.85 34.63 5.3 35.92 5.75 37.65 5.75L37.65 5.75Q40.85 5.75 42.45 4.09 44.05 2.43 44.05-1.2L44.05-1.2 44.05-5.1Q43.7-3.83 42.95-2.58 42.2-1.33 40.88-0.51 39.57 0.3 37.55 0.3L37.55 0.3Q34.72 0.3 32.44-0.99 30.15-2.27 28.8-5.08 27.45-7.88 27.45-12.4L27.45-12.4Q27.45-17 28.79-19.89 30.12-22.78 32.38-24.14 34.65-25.5 37.4-25.5L37.4-25.5Q40.47-25.5 42.1-23.95 43.72-22.4 44.05-20.6L44.05-20.6 44.75-24.9 49.65-24.9 49.65-1.2Q49.65 4.53 46.76 7.86 43.87 11.2 38.25 11.2L38.25 11.2Q35.22 11.2 33 10.44 30.77 9.68 29.65 9L29.65 9ZM38.8-4.6L38.8-4.6Q40.97-4.6 42.21-6.66 43.45-8.72 43.45-12.5L43.45-12.5Q43.45-16.07 42.37-18.26 41.3-20.45 39-20.45L39-20.45Q37.72-20.45 36.56-19.69 35.4-18.93 34.65-17.18 33.9-15.43 33.9-12.45L33.9-12.45Q33.9-8.4 35.28-6.5 36.67-4.6 38.8-4.6ZM64.35 9.45L58.2 9.45 62.25-1.7 52.9-24.9 59.85-24.9 63.55-13.8 65.15-8.05 66.75-13.8 70.5-24.9 77.05-24.9 64.35 9.45ZM86.69 10.9L80.64 10.9 80.64-24.9 86.59-24.9 86.59-24.1 86.09-20.6Q86.39-22.03 87.46-23.15 88.52-24.28 90.06-24.91 91.59-25.55 93.29-25.55L93.29-25.55Q98.24-25.55 100.52-22.09 102.79-18.63 102.79-12.8L102.79-12.8Q102.79-6.28 100.03-2.79 97.27 0.7 92.79 0.7L92.79 0.7Q90.02 0.7 88.36-1.03 86.69-2.75 86.09-4.95L86.09-4.95 86.69-0.25 86.69 10.9ZM91.34-4.25L91.34-4.25Q92.54-4.25 93.67-5.06 94.79-5.88 95.52-7.7 96.24-9.53 96.24-12.55L96.24-12.55Q96.24-16.75 94.81-18.6 93.37-20.45 91.44-20.45L91.44-20.45Q89.12-20.45 87.91-18.06 86.69-15.68 86.69-12.15L86.69-12.15Q86.69-8.63 87.93-6.44 89.17-4.25 91.34-4.25ZM116.84 0.75L116.84 0.75Q112.62 0.75 111.13-1.45 109.64-3.65 109.64-8.1L109.64-8.1 109.64-19.65 106.39-19.65 106.39-24.9 109.89-24.9 110.24-30.15 115.69-32.5 115.69-24.9 121.84-24.9 121.84-19.65 115.69-19.65 115.69-8.25Q115.69-6.08 116.3-5.24 116.92-4.4 117.99-4.4L117.99-4.4Q119.09-4.4 120.32-4.98 121.54-5.55 122.24-6.15L122.24-6.15 123.44-1.1Q122.67-0.55 121.43-0.14 120.19 0.28 118.93 0.51 117.67 0.75 116.84 0.75Z" opacity="1" transform="matrix(1,0,0,1,0,0)" fill="black" class="undefined-tk-1"></path></svg></g></svg></g></svg></g></svg></g></svg></g><g></g></svg></g><defs><mask></mask></defs></svg><rect width="395.52" height="70.9117349114696" fill="black" stroke="none" visibility="hidden"></rect></g></mask></svg><rect width="395.52" height="70.9117349114696" fill="black" stroke="none" visibility="hidden"></rect></g></mask><linearGradient x1="0.054" x2="0.941" y1="0.5" y2="0.5" id="8e15c977-33ea-48a6-8f19-d5491a8f568f"><stop stop-color="#9c7945" offset="0"></stop><stop stop-color="#faf3aa" offset="0.498"></stop><stop stop-color="#9c7945" offset="1"></stop></linearGradient><rect width="395.52" height="70.9117349114696" fill="url(#8e15c977-33ea-48a6-8f19-d5491a8f568f)" mask="url(#3736a9e5-7d7f-4e2d-9c24-9229f4526c81)" data-fill-palette-color="secondary"></rect></svg><rect width="395.52" height="70.9117349114696" fill="none" stroke="none" visibility="hidden"></rect></g></svg></g></svg>